<svg xmlns="http://www.w3.org/2000/svg" width="18" height="18" viewBox="0 0 18 18">
  <path d="M721.000003,37.3788684 L727.543134,30.8357514 C727.990802,30.3880829 728.716604,30.3880829 729.164294,30.8357733 C729.611906,31.2834404 729.611906,32.009225 729.164272,32.4568586 L722.621136,38.9999951 L729.164289,45.5431239 C729.611882,45.9907716 729.6119,46.716506 729.164343,47.1642286 C728.946786,47.3818384 728.655361,47.5 728.353745,47.5 C728.052118,47.5 727.760695,47.3818308 727.543159,47.1642411 L721.000019,40.6211118 L714.456965,47.1641658 C714.239361,47.3818231 713.947972,47.5 713.646336,47.5 C713.344677,47.5 713.053243,47.3818404 712.835751,47.1642408 C712.388083,46.7165723 712.388083,45.9907708 712.835752,45.5431019 L719.378886,38.9999817 L712.835752,32.4568589 C712.388079,32.0091867 712.388079,31.2833679 712.83573,30.835773 C713.283373,30.3880757 714.009239,30.3880757 714.45686,30.8357507 L721.000003,37.3788684 Z" transform="translate(-712 -30)"/>
</svg>
